<svg width="270" height="61" viewBox="0 0 270 61" fill="none" xmlns="http://www.w3.org/2000/svg">
<rect y="0.952393" width="270" height="60" rx="3" fill="white"/>
<path d="M82.4727 34.8555V31.7891H70.5977V22.6484H84.2695V19.5625H66.9844V48H84.4453V44.9336H70.5977V34.8555H82.4727ZM98.0586 48H100.812L109.426 26.8672H105.734L99.8164 42.8047L99.4648 44.1133L99.1328 42.8047L93.0781 26.8672H89.3672L98.0586 48ZM124.211 48.3906C126.268 48.3906 127.993 47.9805 129.387 47.1602C130.793 46.3268 131.848 45.3763 132.551 44.3086L130.344 42.5898C129.68 43.4492 128.846 44.1393 127.844 44.6602C126.841 45.181 125.695 45.4414 124.406 45.4414C123.43 45.4414 122.538 45.2591 121.73 44.8945C120.923 44.5299 120.233 44.0286 119.66 43.3906C119.1 42.7917 118.658 42.1016 118.332 41.3203C118.02 40.5391 117.818 39.6341 117.727 38.6055V38.4688H132.824V36.8477C132.824 35.3763 132.635 34.0091 132.258 32.7461C131.893 31.4831 131.333 30.3828 130.578 29.4453C129.823 28.5208 128.872 27.7982 127.727 27.2773C126.594 26.7435 125.266 26.4766 123.742 26.4766C122.531 26.4766 121.346 26.724 120.188 27.2188C119.042 27.7135 118.02 28.4232 117.121 29.3477C116.21 30.2852 115.48 31.431 114.934 32.7852C114.387 34.1263 114.113 35.6497 114.113 37.3555V38.1758C114.113 39.6471 114.361 41.0078 114.855 42.2578C115.35 43.5078 116.04 44.5885 116.926 45.5C117.811 46.4115 118.872 47.1211 120.109 47.6289C121.359 48.1367 122.727 48.3906 124.211 48.3906ZM123.742 29.4453C124.667 29.4453 125.461 29.6146 126.125 29.9531C126.802 30.2917 127.362 30.7344 127.805 31.2812C128.247 31.8281 128.592 32.4792 128.84 33.2344C129.087 33.9766 129.211 34.6732 129.211 35.3242V35.5H117.844C117.987 34.5234 118.234 33.6641 118.586 32.9219C118.951 32.1667 119.393 31.5286 119.914 31.0078C120.435 30.5 121.021 30.1159 121.672 29.8555C122.323 29.582 123.013 29.4453 123.742 29.4453ZM152.746 26.4766C151.21 26.4766 149.836 26.8151 148.625 27.4922C147.427 28.1562 146.398 29.0677 145.539 30.2266L145.52 29.6992L145.363 26.8672H141.926V48H145.559V34.4453C145.793 33.7943 146.086 33.2083 146.438 32.6875C146.802 32.1536 147.225 31.7044 147.707 31.3398C148.241 30.9232 148.866 30.6107 149.582 30.4023C150.298 30.181 151.099 30.0703 151.984 30.0703C152.674 30.0703 153.332 30.1094 153.957 30.1875C154.595 30.2526 155.266 30.3633 155.969 30.5195L156.457 26.9844C156.092 26.8281 155.546 26.7044 154.816 26.6133C154.1 26.5221 153.41 26.4766 152.746 26.4766ZM163.488 26.8672V30.0117H170.676V44.875H163.488V48H181.184V44.875H174.289V26.8672H163.488ZM170.207 21.3203C170.207 21.9062 170.383 22.3945 170.734 22.7852C171.099 23.1758 171.646 23.3711 172.375 23.3711C173.091 23.3711 173.632 23.1758 173.996 22.7852C174.361 22.3945 174.543 21.9062 174.543 21.3203C174.543 20.9948 174.491 20.6953 174.387 20.4219C174.283 20.1484 174.126 19.9206 173.918 19.7383C173.749 19.569 173.534 19.4388 173.273 19.3477C173.013 19.2435 172.714 19.1914 172.375 19.1914C172.036 19.1914 171.73 19.2435 171.457 19.3477C171.197 19.4388 170.982 19.569 170.812 19.7383C170.604 19.9336 170.448 20.168 170.344 20.4414C170.253 20.7148 170.207 21.0078 170.207 21.3203ZM200.988 42.3945C200.988 42.7331 200.923 43.0521 200.793 43.3516C200.663 43.651 200.474 43.9245 200.227 44.1719C199.823 44.5755 199.263 44.8945 198.547 45.1289C197.831 45.3503 196.991 45.4609 196.027 45.4609C195.415 45.4609 194.797 45.3958 194.172 45.2656C193.547 45.1354 192.98 44.9141 192.473 44.6016C191.952 44.2891 191.516 43.8789 191.164 43.3711C190.826 42.8633 190.63 42.2383 190.578 41.4961H186.965C186.965 42.3945 187.167 43.2604 187.57 44.0938C187.987 44.9271 188.586 45.6562 189.367 46.2812C190.135 46.9193 191.079 47.4336 192.199 47.8242C193.319 48.2018 194.595 48.3906 196.027 48.3906C197.277 48.3906 198.43 48.2409 199.484 47.9414C200.539 47.6419 201.444 47.2188 202.199 46.6719C202.954 46.125 203.54 45.4674 203.957 44.6992C204.387 43.931 204.602 43.0781 204.602 42.1406C204.602 41.2682 204.413 40.5 204.035 39.8359C203.671 39.1719 203.137 38.5859 202.434 38.0781C201.73 37.5833 200.865 37.1602 199.836 36.8086C198.807 36.444 197.642 36.125 196.34 35.8516C195.35 35.6562 194.53 35.4544 193.879 35.2461C193.241 35.0378 192.733 34.8034 192.355 34.543C191.965 34.2826 191.691 33.9896 191.535 33.6641C191.379 33.3385 191.301 32.9674 191.301 32.5508C191.301 32.1471 191.398 31.7565 191.594 31.3789C191.789 31.0013 192.082 30.6693 192.473 30.3828C192.85 30.0964 193.326 29.8685 193.898 29.6992C194.484 29.5299 195.161 29.4453 195.93 29.4453C196.672 29.4453 197.336 29.5495 197.922 29.7578C198.521 29.9661 199.029 30.2396 199.445 30.5781C199.862 30.9167 200.188 31.3073 200.422 31.75C200.656 32.1797 200.773 32.6224 200.773 33.0781H204.387C204.387 32.1536 204.185 31.2943 203.781 30.5C203.391 29.6927 202.831 28.9896 202.102 28.3906C201.372 27.7917 200.487 27.3229 199.445 26.9844C198.404 26.6458 197.232 26.4766 195.93 26.4766C194.719 26.4766 193.605 26.6393 192.59 26.9648C191.587 27.2904 190.721 27.7331 189.992 28.293C189.263 28.8529 188.697 29.5104 188.293 30.2656C187.889 31.0078 187.688 31.8086 187.688 32.668C187.688 33.5404 187.883 34.3086 188.273 34.9727C188.664 35.6237 189.217 36.1901 189.934 36.6719C190.637 37.1667 191.483 37.5898 192.473 37.9414C193.475 38.293 194.582 38.5924 195.793 38.8398C196.783 39.0352 197.609 39.2565 198.273 39.5039C198.938 39.7383 199.471 39.9987 199.875 40.2852C200.279 40.5716 200.565 40.8906 200.734 41.2422C200.904 41.5807 200.988 41.9648 200.988 42.3945Z" fill="black"/>
</svg>
