<svg width="270" height="60" viewBox="0 0 270 60" fill="none" xmlns="http://www.w3.org/2000/svg">
<rect width="270" height="60" rx="3" fill="white"/>
<path d="M60.6172 48V19.5625H56.9648L56.9062 40.7734L45.8711 19.5625H42.1992V48H45.8516L45.9102 26.75L56.9453 48H60.6172ZM86.0078 22.6484V19.5625H64.9141V22.6484H73.7031V48H77.2188V22.6484H86.0078ZM110.031 22.6484V19.5625H88.9375V22.6484H97.7266V48H101.242V22.6484H110.031ZM138.527 48H145.109C146.477 47.987 147.746 47.8242 148.918 47.5117C150.103 47.1992 151.164 46.75 152.102 46.1641C152.987 45.6042 153.788 44.9271 154.504 44.1328C155.22 43.3385 155.812 42.4531 156.281 41.4766C156.737 40.5391 157.082 39.5104 157.316 38.3906C157.564 37.2708 157.688 36.0859 157.688 34.8359V32.7461C157.674 31.444 157.538 30.2201 157.277 29.0742C157.03 27.9284 156.665 26.8737 156.184 25.9102C155.65 24.7773 154.934 23.7812 154.035 22.9219C153.15 22.0495 152.128 21.3464 150.969 20.8125C150.135 20.4219 149.224 20.1224 148.234 19.9141C147.258 19.6927 146.216 19.5755 145.109 19.5625H138.527V48ZM142.199 22.5312H145.109C146.008 22.5443 146.835 22.6484 147.59 22.8438C148.345 23.026 149.029 23.2865 149.641 23.625C150.5 24.0807 151.223 24.6797 151.809 25.4219C152.408 26.151 152.883 26.9714 153.234 27.8828C153.508 28.5859 153.71 29.3477 153.84 30.168C153.983 30.9753 154.061 31.8216 154.074 32.707V34.8359C154.061 35.7083 153.99 36.5482 153.859 37.3555C153.729 38.1497 153.534 38.8919 153.273 39.582C152.974 40.4284 152.564 41.1966 152.043 41.8867C151.535 42.5638 150.93 43.1367 150.227 43.6055C149.562 44.0612 148.801 44.4128 147.941 44.6602C147.095 44.9076 146.151 45.0378 145.109 45.0508H142.199V22.5312ZM176.809 48H180.578V47.6875C180.344 47.1016 180.161 46.418 180.031 45.6367C179.901 44.8424 179.836 44.0938 179.836 43.3906V33.5664C179.836 32.3815 179.621 31.3464 179.191 30.4609C178.762 29.5755 178.176 28.8333 177.434 28.2344C176.678 27.6484 175.786 27.2122 174.758 26.9258C173.729 26.6263 172.616 26.4766 171.418 26.4766C170.103 26.4766 168.924 26.6589 167.883 27.0234C166.854 27.388 165.982 27.8633 165.266 28.4492C164.536 29.0482 163.977 29.7188 163.586 30.4609C163.208 31.2031 163.013 31.9583 163 32.7266H166.633C166.633 32.2839 166.737 31.8607 166.945 31.457C167.167 31.0404 167.473 30.6823 167.863 30.3828C168.254 30.0833 168.729 29.8424 169.289 29.6602C169.862 29.4779 170.507 29.3867 171.223 29.3867C171.991 29.3867 172.681 29.4844 173.293 29.6797C173.918 29.875 174.445 30.1484 174.875 30.5C175.305 30.8646 175.637 31.3008 175.871 31.8086C176.105 32.3164 176.223 32.8893 176.223 33.5273V35.1875H172.277C170.806 35.1875 169.471 35.3307 168.273 35.6172C167.089 35.9036 166.073 36.3333 165.227 36.9062C164.38 37.4922 163.723 38.2214 163.254 39.0938C162.798 39.9661 162.57 40.9818 162.57 42.1406C162.57 43.026 162.74 43.8529 163.078 44.6211C163.43 45.3763 163.924 46.0273 164.562 46.5742C165.188 47.1341 165.949 47.5768 166.848 47.9023C167.759 48.2279 168.775 48.3906 169.895 48.3906C170.585 48.3906 171.236 48.319 171.848 48.1758C172.46 48.0326 173.039 47.8372 173.586 47.5898C174.12 47.3424 174.608 47.056 175.051 46.7305C175.507 46.4049 175.917 46.0599 176.281 45.6953C176.32 46.138 176.379 46.5677 176.457 46.9844C176.548 47.388 176.665 47.7266 176.809 48ZM170.422 45.2461C169.719 45.2461 169.1 45.1549 168.566 44.9727C168.033 44.7904 167.59 44.5365 167.238 44.2109C166.887 43.8984 166.62 43.5208 166.438 43.0781C166.268 42.6354 166.184 42.1536 166.184 41.6328C166.184 41.0859 166.281 40.5977 166.477 40.168C166.685 39.7383 166.984 39.3672 167.375 39.0547C167.922 38.612 168.658 38.2865 169.582 38.0781C170.52 37.8568 171.613 37.7461 172.863 37.7461H176.223V42.0234C176.014 42.4401 175.728 42.8438 175.363 43.2344C174.999 43.612 174.569 43.9505 174.074 44.25C173.566 44.5495 173.007 44.7904 172.395 44.9727C171.783 45.1549 171.125 45.2461 170.422 45.2461ZM195.5 21.75H191.867V26.8672H186.32V29.6602H191.867V41.1445C191.867 42.4466 192.036 43.5599 192.375 44.4844C192.727 45.3958 193.202 46.138 193.801 46.7109C194.4 47.2969 195.103 47.7266 195.91 48C196.73 48.2604 197.609 48.3906 198.547 48.3906C199.107 48.3906 199.667 48.3646 200.227 48.3125C200.799 48.2604 201.34 48.1823 201.848 48.0781C202.355 47.987 202.824 47.8763 203.254 47.7461C203.684 47.6029 204.048 47.4401 204.348 47.2578L203.84 44.6992C203.618 44.7513 203.332 44.8164 202.98 44.8945C202.642 44.9596 202.277 45.0247 201.887 45.0898C201.483 45.1549 201.073 45.2135 200.656 45.2656C200.24 45.3047 199.836 45.3242 199.445 45.3242C198.911 45.3242 198.404 45.2591 197.922 45.1289C197.453 44.9987 197.036 44.7708 196.672 44.4453C196.307 44.1328 196.021 43.7096 195.812 43.1758C195.604 42.6419 195.5 41.9648 195.5 41.1445V29.6602H203.547V26.8672H195.5V21.75ZM224.855 48H228.625V47.6875C228.391 47.1016 228.208 46.418 228.078 45.6367C227.948 44.8424 227.883 44.0938 227.883 43.3906V33.5664C227.883 32.3815 227.668 31.3464 227.238 30.4609C226.809 29.5755 226.223 28.8333 225.48 28.2344C224.725 27.6484 223.833 27.2122 222.805 26.9258C221.776 26.6263 220.663 26.4766 219.465 26.4766C218.15 26.4766 216.971 26.6589 215.93 27.0234C214.901 27.388 214.029 27.8633 213.312 28.4492C212.583 29.0482 212.023 29.7188 211.633 30.4609C211.255 31.2031 211.06 31.9583 211.047 32.7266H214.68C214.68 32.2839 214.784 31.8607 214.992 31.457C215.214 31.0404 215.52 30.6823 215.91 30.3828C216.301 30.0833 216.776 29.8424 217.336 29.6602C217.909 29.4779 218.553 29.3867 219.27 29.3867C220.038 29.3867 220.728 29.4844 221.34 29.6797C221.965 29.875 222.492 30.1484 222.922 30.5C223.352 30.8646 223.684 31.3008 223.918 31.8086C224.152 32.3164 224.27 32.8893 224.27 33.5273V35.1875H220.324C218.853 35.1875 217.518 35.3307 216.32 35.6172C215.135 35.9036 214.12 36.3333 213.273 36.9062C212.427 37.4922 211.77 38.2214 211.301 39.0938C210.845 39.9661 210.617 40.9818 210.617 42.1406C210.617 43.026 210.786 43.8529 211.125 44.6211C211.477 45.3763 211.971 46.0273 212.609 46.5742C213.234 47.1341 213.996 47.5768 214.895 47.9023C215.806 48.2279 216.822 48.3906 217.941 48.3906C218.632 48.3906 219.283 48.319 219.895 48.1758C220.507 48.0326 221.086 47.8372 221.633 47.5898C222.167 47.3424 222.655 47.056 223.098 46.7305C223.553 46.4049 223.964 46.0599 224.328 45.6953C224.367 46.138 224.426 46.5677 224.504 46.9844C224.595 47.388 224.712 47.7266 224.855 48ZM218.469 45.2461C217.766 45.2461 217.147 45.1549 216.613 44.9727C216.079 44.7904 215.637 44.5365 215.285 44.2109C214.934 43.8984 214.667 43.5208 214.484 43.0781C214.315 42.6354 214.23 42.1536 214.23 41.6328C214.23 41.0859 214.328 40.5977 214.523 40.168C214.732 39.7383 215.031 39.3672 215.422 39.0547C215.969 38.612 216.704 38.2865 217.629 38.0781C218.566 37.8568 219.66 37.7461 220.91 37.7461H224.27V42.0234C224.061 42.4401 223.775 42.8438 223.41 43.2344C223.046 43.612 222.616 43.9505 222.121 44.25C221.613 44.5495 221.053 44.7904 220.441 44.9727C219.829 45.1549 219.172 45.2461 218.469 45.2461Z" fill="black"/>
</svg>
