<svg width="270" height="60" viewBox="0 0 270 60" fill="none" xmlns="http://www.w3.org/2000/svg">
<rect width="270" height="60" rx="3" fill="white"/>
<path d="M108.703 17.5625H105.207L105.148 36.8203C105.122 37.6667 104.986 38.4805 104.738 39.2617C104.491 40.043 104.133 40.7331 103.664 41.332C103.182 41.944 102.59 42.4323 101.887 42.7969C101.184 43.1484 100.37 43.3242 99.4453 43.3242C98.5208 43.3242 97.7005 43.1419 96.9844 42.7773C96.2812 42.4128 95.6953 41.931 95.2266 41.332C94.7448 40.7331 94.3737 40.043 94.1133 39.2617C93.8659 38.4805 93.7357 37.6667 93.7227 36.8203L93.6445 17.5625H90.207L90.168 36.8203C90.181 38.1484 90.4154 39.3984 90.8711 40.5703C91.3268 41.7292 91.9583 42.7383 92.7656 43.5977C93.5729 44.4701 94.543 45.1536 95.6758 45.6484C96.8086 46.1432 98.0651 46.3906 99.4453 46.3906C100.799 46.3906 102.043 46.1432 103.176 45.6484C104.309 45.1406 105.285 44.4505 106.105 43.5781C106.926 42.7188 107.57 41.7096 108.039 40.5508C108.508 39.3919 108.742 38.1484 108.742 36.8203L108.703 17.5625ZM130.52 32.8555V29.7891H118.645V20.6484H132.316V17.5625H115.031V46H132.492V42.9336H118.645V32.8555H130.52ZM152.473 38.6367L154.719 46H158.312L149.289 17.5625H146.262L137.082 46H140.695L142.98 38.6367H152.473ZM143.957 35.4922L147.766 23.1484L151.516 35.4922H143.957ZM182.102 20.6484V17.5625H161.008V20.6484H169.797V46H173.312V20.6484H182.102Z" fill="black"/>
</svg>
